<svg width="32" height="32" viewBox="0 0 32 32" xmlns="http://www.w3.org/2000/svg">
  <defs>
    <linearGradient id="leafGradient" x1="0%" y1="0%" x2="100%" y2="100%">
      <stop offset="0%" stop-color="#27ae60" />
      <stop offset="100%" stop-color="#2ecc71" />
    </linearGradient>
    <linearGradient id="infectionGradient" x1="0%" y1="0%" x2="100%" y2="100%">
      <stop offset="0%" stop-color="#e74c3c" />
      <stop offset="100%" stop-color="#c0392b" />
    </linearGradient>
  </defs>
  
  <!-- Background Circle -->
  <circle cx="16" cy="16" r="15" fill="#2a3b4c" stroke="#34495e" stroke-width="1" />
  
  <!-- Stylized Palm Leaf -->
  <path d="M16,5 C12,8 8,13 10,20 C11,21 13,19 14,17 C12,21 13,24 16,27 C19,24 20,21 18,17 C19,19 21,21 22,20 C24,13 20,8 16,5 Z" 
        fill="url(#leafGradient)" />
  
  <!-- Infection Spots -->
  <circle cx="13" cy="15" r="1.5" fill="url(#infectionGradient)" />
  <circle cx="19" cy="17" r="2" fill="url(#infectionGradient)" />
  <circle cx="16" cy="20" r="1.2" fill="url(#infectionGradient)" />
  
  <!-- DNA Helix (representing genomics) -->
  <path d="M7,10 Q9,12 7,14 Q5,16 7,18 Q9,20 7,22" 
        fill="none" stroke="#ecf0f1" stroke-width="0.8" stroke-linecap="round" />
  <path d="M25,10 Q23,12 25,14 Q27,16 25,18 Q23,20 25,22" 
        fill="none" stroke="#ecf0f1" stroke-width="0.8" stroke-linecap="round" />
  
  <!-- Connecting Lines -->
  <line x1="7" y1="10" x2="25" y2="10" stroke="#ecf0f1" stroke-width="0.8" />
  <line x1="7" y1="14" x2="25" y2="14" stroke="#ecf0f1" stroke-width="0.8" />
  <line x1="7" y1="18" x2="25" y2="18" stroke="#ecf0f1" stroke-width="0.8" />
  <line x1="7" y1="22" x2="25" y2="22" stroke="#ecf0f1" stroke-width="0.8" />
</svg>
